<svg width="48" height="48" xmlns="http://www.w3.org/2000/svg">
 <!-- Created with Method Draw - http://github.com/duopixel/Method-Draw/ -->

 <g>
  <title>background</title>
  <rect x="-1" y="-1" width="50" height="50" id="canvas_background" fill="none"/>
  <g id="canvasGrid" display="none">
   <rect id="svg_1" width="100%" height="100%" x="0" y="0" stroke-width="0" fill="url(#gridpattern)"/>
  </g>
 </g>
 <g>
  <title>Layer 1</title>
  <ellipse stroke="#dddddd" fill="#fff" stroke-width="1.5" cx="24" cy="24" id="svg_2" rx="23.1875" ry="23.125002"/>
  <path fill="#fff" stroke="#777777" stroke-width="1.5" fill-opacity="null" opacity="0.5" d="m27.5,34.5" id="svg_8"/>
  <path stroke="#777777" transform="rotate(0.029276110231876373 24.00701522826788,23.996429443353442) " fill="#fff" stroke-width="1.5" fill-opacity="null" d="m28.960779,19.606747c0,0 0.874112,-4.385153 0,-5.870609c-0.875141,-1.485455 -1.224168,-2.474926 -3.148448,-3.183297s-1.223139,-0.567196 -2.622335,-0.494735c-1.399196,0.071212 -2.565707,0.989471 -2.565707,1.484206c0,0 -0.874112,0.071212 -1.223139,0.495985c-0.350056,0.424773 -0.932797,2.403714 -0.932797,2.899699s0.291371,3.820456 0.582741,4.527577l-0.346968,0.141175c-0.291371,4.101555 1.165482,4.59754 1.165482,4.59754c0.524055,3.820456 1.04914,2.193826 1.04914,3.183297s-0.525084,0.637159 -0.525084,0.637159s-0.465369,1.555418 -1.630851,2.121365c-1.165482,0.564698 -7.635348,3.60557 -8.161462,4.242729c-0.526114,0.638408 -0.466399,3.60807 -0.466399,3.60807l27.74403,0c0,0 0.060745,-2.969661 -0.465369,-3.60807c-0.527144,-0.638408 -6.99701,-3.678031 -8.162492,-4.242729c-1.165482,-0.565947 -1.630851,-2.121365 -1.630851,-2.121365s-0.525084,0.352312 -0.525084,-0.637159s0.525084,0.637159 1.050169,-3.183297c0,0 1.455823,-0.495985 1.165482,-4.59754l-0.350056,0l-0.000001,0z" id="svg_18"/>
 </g>
</svg>