<svg width="10" height="10" xmlns="http://www.w3.org/2000/svg"><title>background</title><path fill="none" d="M-1-1h12v12H-1z"/><title>Layer 1</title><path stroke="#000" d="M8.537 2.288H6.965v-.632h-3.93v.632H1.463a.84.84 0 0 0-.838.843V7.5a.84.84 0 0 0 .838.843h7.074a.84.84 0 0 0 .838-.843V3.13a.84.84 0 0 0-.838-.843zM5 7.87a2.55 2.55 0 0 1-2.54-2.553c0-1.408 1.139-2.554 2.54-2.554s2.54 1.146 2.54 2.554A2.55 2.55 0 0 1 5 7.87zm0-4.264c-.94 0-1.703.766-1.703 1.71 0 .946.763 1.712 1.703 1.712.94 0 1.702-.766 1.702-1.711 0-.945-.761-1.711-1.702-1.711z" fill="#fff"/></svg>