<svg width="22" height="16" xmlns="http://www.w3.org/2000/svg"><title>background</title><path fill="none" d="M-1-1h24v18H-1z"/><title>Layer 1</title><path stroke="#000" fill="#fff" d="M18.073 2.776H14.93V1.5H7.07v1.276H3.927a1.69 1.69 0 0 0-1.677 1.7V13.3a1.69 1.69 0 0 0 1.677 1.701h14.146a1.69 1.69 0 0 0 1.677-1.7V4.475c0-.938-.751-1.7-1.677-1.7zM11 14.042c-2.802 0-5.08-2.312-5.08-5.154S8.197 3.733 11 3.733s5.081 2.313 5.081 5.155-2.28 5.154-5.081 5.154zm0-8.609c-1.882 0-3.406 1.547-3.406 3.454 0 1.909 1.525 3.455 3.406 3.455 1.88 0 3.405-1.546 3.405-3.455 0-1.907-1.523-3.454-3.405-3.454z"/></svg>