<svg width="48" height="48" xmlns="http://www.w3.org/2000/svg"><title>background</title><path fill="none" d="M-1-1h50v50H-1z"/><title>Layer 1</title><ellipse stroke="#ddd" fill="#fff" stroke-width="1.5" cx="24" cy="24" rx="23.188" ry="23.125"/><path stroke="#777" fill="#fff" stroke-width="1.5" fill-opacity="null" d="M28.963 19.61s.876-4.385.003-5.871c-.874-1.486-1.223-2.476-3.147-3.185s-1.223-.568-2.622-.496c-1.4.07-2.566.988-2.566 1.483 0 0-.874.07-1.224.495s-.934 2.403-.934 2.9.29 3.82.58 4.527l-.347.141c-.293 4.101 1.164 4.598 1.164 4.598.522 3.82 1.048 2.195 1.047 3.184s-.525.637-.525.637-.467 1.555-1.632 2.12c-1.166.565-7.638 3.602-8.164 4.239-.526.638-.468 3.608-.468 3.608l27.744.014s.062-2.97-.464-3.608c-.527-.639-6.995-3.682-8.16-4.247-1.165-.567-1.63-2.122-1.63-2.122s-.525.352-.525-.638.525.638 1.052-3.183c0 0 1.456-.495 1.168-4.597h-.35z"/></svg>