<svg width="22" height="16" xmlns="http://www.w3.org/2000/svg">
 <!-- Created with Method Draw - http://github.com/duopixel/Method-Draw/ -->

 <g>
  <title>background</title>
  <rect x="-1" y="-1" width="24" height="18" id="canvas_background" fill="none"/>
  <g id="canvasGrid" display="none">
   <rect id="svg_2" width="100%" height="100%" x="0" y="0" stroke-width="0" fill="url(#gridpattern)"/>
  </g>
 </g>
 <g>
  <title>Layer 1</title>
  <path stroke="#000" fill="#fff" d="m18.073349,2.775594l-3.143711,0l0,-1.27559l-7.859276,0l0,1.27559l-3.143711,0c-0.925508,0 -1.676646,0.761952 -1.676646,1.700786l0,8.82283c0,0.938835 0.751137,1.700786 1.676646,1.700786l14.146697,0c0.925508,0 1.676646,-0.761952 1.676646,-1.700786l0,-8.82283c0,-0.938835 -0.751137,-1.700786 -1.676646,-1.700786l0.000001,0zm-7.073768,11.26686c-2.801675,0 -5.080236,-2.312219 -5.080236,-5.154234c0,-2.842014 2.278561,-5.155084 5.080236,-5.155084s5.081913,2.313069 5.081913,5.155084c0,2.842014 -2.281076,5.154234 -5.081913,5.154234zm0,-8.609381c-1.881196,0 -3.405267,1.546865 -3.405267,3.454297c0,1.908282 1.524909,3.454297 3.405267,3.454297c1.881196,0 3.405267,-1.546015 3.405267,-3.454297c0.000838,-1.907432 -1.523233,-3.454297 -3.405267,-3.454297z" id="svg_1"/>
 </g>
</svg>