<svg width="10" height="10" xmlns="http://www.w3.org/2000/svg">
 <!-- Created with Method Draw - http://github.com/duopixel/Method-Draw/ -->
 <g>
  <title>background</title>
  <rect fill="none" id="canvas_background" height="12" width="12" y="-1" x="-1"/>
  <g display="none" overflow="visible" y="0" x="0" height="100%" width="100%" id="canvasGrid">
   <rect fill="url(#gridpattern)" stroke-width="0" y="0" x="0" height="100%" width="100%"/>
  </g>
 </g>
 <g>
  <title>Layer 1</title>
  <path stroke="#000" id="svg_1" d="m8.536674,2.288141l-1.571855,0l0,-0.631889l-3.929638,0l0,0.631889l-1.571855,0c-0.462754,0 -0.838323,0.377449 -0.838323,0.842519l0,4.370569c0,0.465071 0.375569,0.842519 0.838323,0.842519l7.073348,0c0.462754,0 0.838323,-0.377449 0.838323,-0.842519l0,-4.370569c0,-0.465071 -0.375569,-0.842519 -0.838323,-0.842519zm-3.536883,5.581269c-1.400837,0 -2.540118,-1.145405 -2.540118,-2.553255c0,-1.40785 1.139281,-2.553676 2.540118,-2.553676s2.540956,1.145826 2.540956,2.553676c0,1.40785 -1.140538,2.553255 -2.540956,2.553255zm0,-4.264832c-0.940598,0 -1.702633,0.766271 -1.702633,1.711157c0,0.945307 0.762454,1.711157 1.702633,1.711157c0.940598,0 1.702633,-0.76585 1.702633,-1.711157c0.000419,-0.944885 -0.761616,-1.711157 -1.702633,-1.711157z" fill="#fff"/>
 </g>
</svg>